<mxfile host="app.diagrams.net" modified="2021-03-10T07:41:59.359Z" agent="5.0 (iPad; CPU OS 14_4 like Mac OS X) AppleWebKit/605.1.15 (KHTML, like Gecko) CriOS/87.0.4280.77 Mobile/15E148 Safari/604.1" etag="7EhVGeUEIEkZpPB3mk2s" version="14.4.6" type="github">
  <diagram id="YL-ERIrRL_eofhYYLfkw" name="Page-1">
    <mxGraphModel dx="1980" dy="1869" grid="1" gridSize="10" guides="1" tooltips="1" connect="1" arrows="1" fold="1" page="1" pageScale="1" pageWidth="827" pageHeight="1169" math="0" shadow="0">
      <root>
        <mxCell id="0" />
        <mxCell id="1" parent="0" />
        <mxCell id="HVVgj0Tw0afYb7fwGS58-11" value="" style="rounded=1;whiteSpace=wrap;html=1;fillColor=#fff2cc;strokeColor=#d6b656;" vertex="1" parent="1">
          <mxGeometry x="350" y="20" width="416.5" height="170" as="geometry" />
        </mxCell>
        <mxCell id="HVVgj0Tw0afYb7fwGS58-1" value="AWACS" style="ellipse;shape=cloud;whiteSpace=wrap;html=1;" vertex="1" parent="1">
          <mxGeometry x="-166" y="55" width="150" height="90" as="geometry" />
        </mxCell>
        <mxCell id="HVVgj0Tw0afYb7fwGS58-5" value="" style="edgeStyle=orthogonalEdgeStyle;rounded=0;orthogonalLoop=1;jettySize=auto;html=1;" edge="1" parent="1" source="HVVgj0Tw0afYb7fwGS58-3" target="HVVgj0Tw0afYb7fwGS58-4">
          <mxGeometry relative="1" as="geometry" />
        </mxCell>
        <mxCell id="HVVgj0Tw0afYb7fwGS58-3" value="TRAC/finances" style="ellipse;shape=cloud;whiteSpace=wrap;html=1;" vertex="1" parent="1">
          <mxGeometry x="350" y="40" width="150" height="90" as="geometry" />
        </mxCell>
        <mxCell id="HVVgj0Tw0afYb7fwGS58-4" value="Invoices" style="whiteSpace=wrap;html=1;" vertex="1" parent="1">
          <mxGeometry x="640" y="55" width="120" height="60" as="geometry" />
        </mxCell>
        <mxCell id="HVVgj0Tw0afYb7fwGS58-13" value="" style="edgeStyle=orthogonalEdgeStyle;rounded=0;orthogonalLoop=1;jettySize=auto;html=1;" edge="1" parent="1" source="HVVgj0Tw0afYb7fwGS58-6" target="HVVgj0Tw0afYb7fwGS58-12">
          <mxGeometry relative="1" as="geometry" />
        </mxCell>
        <mxCell id="HVVgj0Tw0afYb7fwGS58-6" value="Project evaluation" style="whiteSpace=wrap;html=1;" vertex="1" parent="1">
          <mxGeometry x="240" y="360" width="120" height="60" as="geometry" />
        </mxCell>
        <mxCell id="HVVgj0Tw0afYb7fwGS58-9" value="" style="endArrow=classic;html=1;exitX=0.55;exitY=0.95;exitDx=0;exitDy=0;exitPerimeter=0;entryX=0;entryY=0.5;entryDx=0;entryDy=0;" edge="1" parent="1" source="HVVgj0Tw0afYb7fwGS58-1" target="HVVgj0Tw0afYb7fwGS58-6">
          <mxGeometry width="50" height="50" relative="1" as="geometry">
            <mxPoint x="390" y="300" as="sourcePoint" />
            <mxPoint x="440" y="250" as="targetPoint" />
          </mxGeometry>
        </mxCell>
        <mxCell id="HVVgj0Tw0afYb7fwGS58-10" value="" style="endArrow=classic;html=1;exitX=0.5;exitY=0;exitDx=0;exitDy=0;entryX=0.55;entryY=0.95;entryDx=0;entryDy=0;entryPerimeter=0;" edge="1" parent="1" source="HVVgj0Tw0afYb7fwGS58-6" target="HVVgj0Tw0afYb7fwGS58-3">
          <mxGeometry width="50" height="50" relative="1" as="geometry">
            <mxPoint x="390" y="300" as="sourcePoint" />
            <mxPoint x="440" y="250" as="targetPoint" />
          </mxGeometry>
        </mxCell>
        <mxCell id="HVVgj0Tw0afYb7fwGS58-12" value="Monthly governance" style="whiteSpace=wrap;html=1;" vertex="1" parent="1">
          <mxGeometry x="430" y="360" width="120" height="60" as="geometry" />
        </mxCell>
        <mxCell id="HVVgj0Tw0afYb7fwGS58-14" value="" style="endArrow=none;dashed=1;html=1;dashPattern=1 3;strokeWidth=2;" edge="1" parent="1">
          <mxGeometry width="50" height="50" relative="1" as="geometry">
            <mxPoint x="600" y="540" as="sourcePoint" />
            <mxPoint x="600" y="-10" as="targetPoint" />
          </mxGeometry>
        </mxCell>
        <mxCell id="HVVgj0Tw0afYb7fwGS58-15" value="" style="endArrow=none;dashed=1;html=1;dashPattern=1 3;strokeWidth=2;" edge="1" parent="1">
          <mxGeometry width="50" height="50" relative="1" as="geometry">
            <mxPoint x="190" y="540" as="sourcePoint" />
            <mxPoint x="190" y="-10" as="targetPoint" />
          </mxGeometry>
        </mxCell>
        <mxCell id="HVVgj0Tw0afYb7fwGS58-16" value="" style="endArrow=classic;html=1;exitX=0.5;exitY=0;exitDx=0;exitDy=0;entryX=0.4;entryY=0.1;entryDx=0;entryDy=0;entryPerimeter=0;" edge="1" parent="1" source="HVVgj0Tw0afYb7fwGS58-4" target="HVVgj0Tw0afYb7fwGS58-1">
          <mxGeometry width="50" height="50" relative="1" as="geometry">
            <mxPoint x="370" y="270" as="sourcePoint" />
            <mxPoint x="420" y="220" as="targetPoint" />
            <Array as="points">
              <mxPoint x="640" y="-40" />
              <mxPoint x="-40" y="-40" />
            </Array>
          </mxGeometry>
        </mxCell>
        <mxCell id="HVVgj0Tw0afYb7fwGS58-17" value="Officevibe" style="ellipse;shape=cloud;whiteSpace=wrap;html=1;" vertex="1" parent="1">
          <mxGeometry x="23" y="50" width="150" height="90" as="geometry" />
        </mxCell>
        <mxCell id="HVVgj0Tw0afYb7fwGS58-18" value="" style="endArrow=classic;html=1;exitX=0.55;exitY=0.95;exitDx=0;exitDy=0;exitPerimeter=0;entryX=0.5;entryY=0;entryDx=0;entryDy=0;" edge="1" parent="1" source="HVVgj0Tw0afYb7fwGS58-17" target="HVVgj0Tw0afYb7fwGS58-12">
          <mxGeometry width="50" height="50" relative="1" as="geometry">
            <mxPoint x="240" y="200" as="sourcePoint" />
            <mxPoint x="290" y="150" as="targetPoint" />
          </mxGeometry>
        </mxCell>
        <mxCell id="HVVgj0Tw0afYb7fwGS58-19" value="DEV" style="shape=umlActor;verticalLabelPosition=bottom;verticalAlign=top;html=1;outlineConnect=0;" vertex="1" parent="1">
          <mxGeometry y="500" width="30" height="60" as="geometry" />
        </mxCell>
        <mxCell id="HVVgj0Tw0afYb7fwGS58-20" value="PL" style="shape=umlActor;verticalLabelPosition=bottom;verticalAlign=top;html=1;outlineConnect=0;" vertex="1" parent="1">
          <mxGeometry x="398" y="500" width="30" height="60" as="geometry" />
        </mxCell>
        <mxCell id="HVVgj0Tw0afYb7fwGS58-21" value="Project Admin" style="shape=umlActor;verticalLabelPosition=bottom;verticalAlign=top;html=1;outlineConnect=0;" vertex="1" parent="1">
          <mxGeometry x="710" y="500" width="30" height="60" as="geometry" />
        </mxCell>
      </root>
    </mxGraphModel>
  </diagram>
</mxfile>
